# xmcd CD database file
#
# Track frame offsets:
#	182
#	18045
#	36407
#	55162
#	69170
#	89150
#	108530
#	125970
#
# Disc length: 1912 seconds
#
# Revision: 1
# Processed by: cddbd v1.4PL0 Copyright (c) Steve Scherf et al.
# Submitted via: CDex 1.50
#
DISCID=6e077608
DTITLE=Los Hermanos Rosario - Acabando
DYEAR=1995
DGENRE=Merengue
TTITLE0=Borron y cuenta nueva
TTITLE1=Nunca mas
TTITLE2=Mi morena
TTITLE3=Hipocresia
TTITLE4=Adolescente
TTITLE5=La voy a olvidar
TTITLE6=La luna coqueta
TTITLE7=Señora
EXTD=YEAR: 1995
EXTT0=
EXTT1=
EXTT2=
EXTT3=
EXTT4=
EXTT5=
EXTT6=
EXTT7=
PLAYORDER=
